<svg xmlns="http://www.w3.org/2000/svg" xmlns:xlink="http://www.w3.org/1999/xlink" width="609.753" height="204" viewBox="0 0 609.753 204">
  <defs>
    <clipPath id="clip-path">
      <rect id="Rectangle_31" data-name="Rectangle 31" width="609.753" height="204" fill="none"/>
    </clipPath>
  </defs>
  <g id="Groupe_23" data-name="Groupe 23" transform="translate(0 0)">
    <g id="Groupe_23-2" data-name="Groupe 23" transform="translate(0 0)" clip-path="url(#clip-path)">
      <path id="Tracé_627" data-name="Tracé 627" d="M143.053,116.351h-17.4l-15.02-30.687H99.83v30.687H84.812V39.418h30.147q11.45,0,18.368,6.915a22.56,22.56,0,0,1,6.592,16.64,20.572,20.572,0,0,1-14.047,20.206ZM124.9,62.92a9.49,9.49,0,0,0-3.025-7.309,11.169,11.169,0,0,0-7.888-2.795H99.83V73.023h14.156a11.163,11.163,0,0,0,7.888-2.8A9.482,9.482,0,0,0,124.9,62.92" transform="translate(52.756 24.519)" fill="#163452"/>
      <path id="Tracé_628" data-name="Tracé 628" d="M179.055,116.351H128.377V39.418h50.677v13.4H143.4V70.861H173.76v13.4H143.4v18.694h35.657Z" transform="translate(79.855 24.519)" fill="#163452"/>
      <path id="Tracé_629" data-name="Tracé 629" d="M224.457,84.969q0,15.817-7.348,23.5-8.428,8.776-21.719,8.774a28.188,28.188,0,0,1-20.746-8.428,24.663,24.663,0,0,1-6.7-13.291q-.866-4.752-.865-17.4t.866-17.395a24.631,24.631,0,0,1,6.71-13.291,28.279,28.279,0,0,1,20.788-8.428q12.555,0,20.459,7.455,6.82,6.594,8.553,17.182H209.291q-2.71-11.238-13.867-11.239a12.331,12.331,0,0,0-9.64,4.107q-2.82,3.241-3.468,10.373-.219,1.944-.216,11.236t.216,11.237q.647,7.241,3.457,10.482a12.238,12.238,0,0,0,9.617,4q6.808,0,10.7-4.321,3.457-3.783,3.458-10.266V86.344H195.39V73.7h29.067Z" transform="translate(103.93 24.271)" fill="#163452"/>
      <path id="Tracé_630" data-name="Tracé 630" d="M257.626,74.126H224.178a11.967,11.967,0,0,0,3.129,8.619,11.266,11.266,0,0,0,8.566,3.283A16.509,16.509,0,0,0,247.982,81l8.1,7.9a29.058,29.058,0,0,1-8.618,6.259,28.594,28.594,0,0,1-11.7,2.154q-24.727,0-24.728-27.395,0-12.825,6.465-20.212,6.255-7.08,16.827-7.08,10.873,0,17.237,7.283,6.051,6.98,6.053,18.266ZM244.493,65a14.86,14.86,0,0,0-1.231-5.747q-2.462-5.54-8.926-5.541t-8.928,5.541A14.772,14.772,0,0,0,224.178,65Z" transform="translate(131.276 26.516)" fill="#161615"/>
      <path id="Tracé_631" data-name="Tracé 631" d="M306.592,116.351H289.2l-15.02-30.687H263.369v30.687H248.351V39.418H278.5q11.45,0,18.368,6.915a22.559,22.559,0,0,1,6.59,16.64,20.568,20.568,0,0,1-14.045,20.206ZM288.438,62.92a9.49,9.49,0,0,0-3.025-7.309,11.17,11.17,0,0,0-7.888-2.795H263.369V73.023h14.156a11.163,11.163,0,0,0,7.888-2.8,9.482,9.482,0,0,0,3.025-7.307" transform="translate(154.483 24.519)" fill="#163452"/>
      <path id="Tracé_632" data-name="Tracé 632" d="M350.8,116.351h-13.4L306.935,69.132v47.219H291.917V39.418h13.4L335.786,86.53V39.418H350.8Z" transform="translate(181.582 24.519)" fill="#163452"/>
      <path id="Tracé_633" data-name="Tracé 633" d="M401.941,116.351H386.274l-4.538-13.614H354.4l-4.645,13.614H334.083L362.07,39.418h11.778Zm-24.2-26.257-9.4-27.985-9.726,27.985Z" transform="translate(207.811 24.519)" fill="#163452"/>
      <path id="Tracé_634" data-name="Tracé 634" d="M243.069,90.1H219.88a4.24,4.24,0,1,1,0-8.48h23.189a4.24,4.24,0,1,1,0,8.48" transform="translate(134.135 50.77)" fill="#d9000d"/>
      <path id="Tracé_635" data-name="Tracé 635" d="M50.452,70.5a5.4,5.4,0,0,1-4.624-9.229c6.589-6.316,11.03-11.812,13.98-17.289A5.4,5.4,0,1,1,69.323,49.1c-3.5,6.5-8.59,12.847-16.016,19.967A5.384,5.384,0,0,1,50.452,70.5" transform="translate(27.472 25.586)" fill="#d9000d"/>
      <path id="Tracé_636" data-name="Tracé 636" d="M47.862,154.571a5.4,5.4,0,0,1-3.058-9.859c17.119-11.731,24.1-22.311,24.1-36.517a34.065,34.065,0,0,0-6.384-20.224,5.4,5.4,0,0,1,8.843-6.211A44.545,44.545,0,0,1,79.712,108.2c0,22.775-15.391,36.243-28.8,45.428a5.373,5.373,0,0,1-3.049.947" transform="translate(26.408 49.429)" fill="#163452"/>
      <path id="Tracé_637" data-name="Tracé 637" d="M77.457,102.316a5.378,5.378,0,0,1-3.4-1.21c-6.819-5.539-15.2-10.54-23.3-15.374C33.7,75.554,16.063,65.032,8.668,47.614a5.4,5.4,0,0,1,9.945-4.224c6.016,14.17,21.4,23.346,37.677,33.064,8.433,5.032,17.153,10.233,24.577,16.266a5.4,5.4,0,0,1-3.41,9.6" transform="translate(5.123 24.943)" fill="#163452"/>
      <path id="Tracé_638" data-name="Tracé 638" d="M53.034,37.865h-1a3.376,3.376,0,0,1,0-6.753h1a3.376,3.376,0,1,1,0,6.753" transform="translate(30.267 19.353)" fill="#163452"/>
      <path id="Tracé_639" data-name="Tracé 639" d="M48.172,37.865H35.8a3.376,3.376,0,1,1,0-6.753H48.172a3.376,3.376,0,1,1,0,6.753" transform="translate(20.166 19.353)" fill="#163452"/>
      <path id="Tracé_640" data-name="Tracé 640" d="M34.91,37.865H20.24a3.376,3.376,0,0,1,0-6.753H34.91a3.376,3.376,0,1,1,0,6.753" transform="translate(10.491 19.353)" fill="#163452"/>
      <path id="Tracé_641" data-name="Tracé 641" d="M45.457,27.1H26.988a3.377,3.377,0,1,1,0-6.754H45.457a3.377,3.377,0,1,1,0,6.754" transform="translate(14.687 12.658)" fill="#d9000d"/>
      <path id="Tracé_642" data-name="Tracé 642" d="M46.308,27.1H45.257a3.377,3.377,0,1,1,0-6.754h1.051a3.377,3.377,0,1,1,0,6.754" transform="translate(26.051 12.658)" fill="#163452"/>
      <path id="Tracé_643" data-name="Tracé 643" d="M45.457,48.629H26.988a3.376,3.376,0,1,1,0-6.753H45.457a3.376,3.376,0,1,1,0,6.753" transform="translate(14.687 26.048)" fill="#163452"/>
      <path id="Tracé_644" data-name="Tracé 644" d="M46.308,48.629H45.257a3.376,3.376,0,1,1,0-6.753h1.051a3.376,3.376,0,1,1,0,6.753" transform="translate(26.051 26.048)" fill="#163452"/>
      <path id="Tracé_645" data-name="Tracé 645" d="M41.44,102.554h7.883a3.376,3.376,0,1,0,0-6.753H41.44a3.376,3.376,0,1,0,0,6.753" transform="translate(23.676 59.591)" fill="#d9000d"/>
      <path id="Tracé_646" data-name="Tracé 646" d="M34.51,113.318h8.182a3.376,3.376,0,0,0,0-6.753H34.51a3.376,3.376,0,1,0,0,6.753" transform="translate(19.366 66.287)" fill="#163452"/>
      <path id="Tracé_647" data-name="Tracé 647" d="M27.63,113.3a3.377,3.377,0,0,0,2.383-5.765,3.484,3.484,0,0,0-4.777,0,3.379,3.379,0,0,0,0,4.775,3.439,3.439,0,0,0,2.394.989" transform="translate(15.083 66.304)" fill="#163452"/>
      <path id="Tracé_648" data-name="Tracé 648" d="M39.987,91.791h1.364a3.376,3.376,0,1,0,0-6.753H39.987a3.376,3.376,0,1,0,0,6.753" transform="translate(22.773 52.897)" fill="#163452"/>
      <path id="Tracé_649" data-name="Tracé 649" d="M102.24,7.555C86.66-4.928,72.238.806,65.032,5.338a35.681,35.681,0,0,0-8.014,6.9A35.752,35.752,0,0,0,49,5.338C41.793.808,27.373-4.928,11.795,7.555-6.957,22.582.679,47.225,7.338,58.155a5.122,5.122,0,1,0,8.749-5.33c-.146-.238-14.374-24.063,2.114-37.276,8.107-6.491,16.636-7.012,25.351-1.536a25.42,25.42,0,0,1,8.2,8.345,8.623,8.623,0,0,1,.534.983c.032.079.084.148.122.225a5.079,5.079,0,0,0,.35.647c.091.136.2.253.3.378a5.1,5.1,0,0,0,.329.394,5.133,5.133,0,0,0,.42.352c.117.094.225.2.352.284a5.307,5.307,0,0,0,.647.35c.078.037.144.089.229.123l.013,0a5.19,5.19,0,0,0,.962.294c.149.029.3.029.449.045a5.1,5.1,0,0,0,.548.052,4.9,4.9,0,0,0,.555-.052c.148-.016.3-.016.443-.045a5.085,5.085,0,0,0,.957-.29l.019,0c.1-.044.191-.109.29-.157a4.89,4.89,0,0,0,.581-.315c.139-.092.258-.2.386-.308s.268-.206.388-.326a4.723,4.723,0,0,0,.349-.415,4.364,4.364,0,0,0,.285-.357,5.028,5.028,0,0,0,.354-.649c.037-.078.089-.144.122-.225a8.427,8.427,0,0,1,.539-.994,25.447,25.447,0,0,1,8.2-8.339C79.2,8.538,87.726,9.054,95.833,15.549c16.394,13.14,2.7,36.306,2.11,37.286a5.122,5.122,0,0,0,8.754,5.32c6.657-10.929,14.293-35.573-4.457-50.6" transform="translate(0 0)" fill="#163452"/>
    </g>
  </g>
</svg>
